<svg width="32" height="32" viewBox="0 0 32 32" fill="none" xmlns="http://www.w3.org/2000/svg">
<g clip-path="url(#clip0_532_14873)">
<path fill-rule="evenodd" clip-rule="evenodd" d="M1.04565 12.668C0.400391 13.3132 0 14.2039 0 15.1846C0 16.1653 0.400391 17.0562 1.04565 17.7014C1.69092 18.3467 2.58179 18.7471 3.5625 18.7471H3.6875V11.6221H3.5625C2.58179 11.6221 1.69092 12.0227 1.04565 12.668Z" fill="#9FB1CC"/>
<path fill-rule="evenodd" clip-rule="evenodd" d="M13.5 9.87207H6.5C5.98218 9.87207 5.5625 10.292 5.5625 10.8096V19.5596C5.5625 20.0774 5.98218 20.4971 6.5 20.4971H13.5V9.87207Z" fill="#9FB1CC"/>
<path fill-rule="evenodd" clip-rule="evenodd" d="M31.9976 4.37254C31.9978 4.16673 31.9302 3.95945 31.7913 3.7866C31.4678 3.38426 30.8789 3.32029 30.4766 3.64378C29.1028 4.75438 27.7539 5.7639 26.4126 6.62156C25.0815 7.47264 23.7446 8.18455 22.3801 8.71165C21.0928 9.20872 19.7722 9.52244 18.4414 9.70091C17.4216 9.83738 16.396 9.89476 15.375 9.89378V20.4741C16.4016 20.4692 17.4304 20.5188 18.4504 20.6482C19.7756 20.8166 21.0928 21.1211 22.3801 21.6181C23.7446 22.1452 25.0813 22.8572 26.4126 23.7082C27.7368 24.5547 29.0681 25.5493 30.4236 26.643C30.5908 26.7991 30.8157 26.8945 31.0625 26.8945C31.5803 26.8945 32 26.4748 32 25.957V4.37254H31.9976Z" fill="#9FB1CC"/>
<path fill-rule="evenodd" clip-rule="evenodd" d="M14.096 22.3721H7.36914L8.45703 26.4319C8.65747 27.1797 9.14404 27.7769 9.76709 28.1367C10.3916 28.4973 11.1523 28.6206 11.8997 28.4204L12.7446 28.1938C13.4927 27.9934 14.0898 27.5068 14.4497 26.8838L14.448 26.8828L14.4497 26.8801C14.8098 26.2563 14.9331 25.4968 14.7334 24.7512L14.096 22.3721Z" fill="#9FB1CC"/>
</g>
<defs>
<clipPath id="clip0_532_14873">
<rect width="32" height="32" fill="white"/>
</clipPath>
</defs>
</svg>
