<svg width="17" height="17" viewBox="0 0 17 17" fill="none" xmlns="http://www.w3.org/2000/svg">
<g clip-path="url(#clip0_751_683)">
<path d="M8.37068 0.1436C3.95938 0.1436 0.370674 3.73231 0.370674 8.1436C0.370674 12.5549 3.95938 16.1436 8.37068 16.1436C12.782 16.1436 16.3707 12.5549 16.3707 8.1436C16.3707 3.73231 12.781 0.1436 8.37068 0.1436ZM12.5806 7.67301C12.6728 6.29889 13.1594 4.98595 13.9895 3.88948C14.7989 4.95584 15.3109 6.25654 15.405 7.67301H12.5806ZM15.405 8.61419C15.3109 10.0307 14.7989 11.3323 13.9886 12.3987C13.1594 11.3012 12.6728 9.98831 12.5815 8.61419H15.405ZM13.3683 3.16384C12.3387 4.45419 11.7373 6.02501 11.6394 7.67301H8.82621V1.10737C10.5947 1.22219 12.19 1.98172 13.3683 3.16384ZM7.88503 1.10925V7.67301H5.09915C5.00315 6.02407 4.40173 4.45419 3.37303 3.16384C4.54385 1.98831 6.12785 1.22972 7.88503 1.10925ZM1.33538 7.67301C1.4295 6.25654 1.9415 4.95489 2.75185 3.88854C3.58103 4.98501 4.06667 6.29795 4.15891 7.67301H1.33538ZM4.15797 8.61419C4.06667 9.99019 3.58197 11.3022 2.75185 12.3987C1.9415 11.3323 1.4295 10.0307 1.33538 8.61419H4.15797ZM3.37209 13.1234C4.40267 11.833 5.00315 10.2631 5.09915 8.61419H7.88503V15.178C6.12785 15.0575 4.54385 14.2989 3.37209 13.1234ZM8.82621 15.1798V8.61419H11.6403C11.7373 10.2622 12.3387 11.833 13.3674 13.1243C12.189 14.3055 10.5947 15.065 8.82621 15.1798Z" fill="white"/>
</g>
<defs>
<clipPath id="clip0_751_683">
<rect width="16" height="16" fill="white" transform="translate(0.354675 0.1436)"/>
</clipPath>
</defs>
</svg>
