<svg width="16" height="16" viewBox="0 0 16 16" fill="none" xmlns="http://www.w3.org/2000/svg">
<path d="M1.88235 0V15.9078L3.79106 13.5727L5.20565 15.3421L6.61835 13.5774L8.02918 15.3421L9.44094 13.5774L10.8527 15.3421L12.2635 13.5774L14.1176 15.8927V0H1.88235V0ZM13.1765 13.2104L12.2635 12.0706L10.8527 13.8353L9.44094 12.0706L8.02918 13.8353L6.61835 12.0706L5.20565 13.8353L3.79859 12.0753L2.82353 13.2687V0.941176H13.1765V13.2104ZM10.3501 3.76471H4.70306V2.82353H10.3501V3.76471ZM8.46777 7.52941H4.70306V6.58824H8.46777V7.52941ZM11.2734 5.64706H4.68518V4.70588H11.2734V5.64706ZM4.70588 9.41177H11.2941V10.3529H4.70588V9.41177Z" fill="white"/>
</svg>
