<svg width="17" height="17" viewBox="0 0 17 17" fill="none" xmlns="http://www.w3.org/2000/svg">
<g clip-path="url(#clip0_751_659)">
<path d="M8.80295 0.718018C4.39165 0.718018 0.802948 4.30672 0.802948 8.71802C0.802948 13.1293 4.39165 16.718 8.80295 16.718C13.2142 16.718 16.8029 13.1293 16.8029 8.71802C16.8029 4.30672 13.2142 0.718018 8.80295 0.718018ZM8.80295 15.7768C4.91024 15.7768 1.74412 12.6107 1.74412 8.71802C1.74412 4.82531 4.91024 1.65919 8.80295 1.65919C12.6957 1.65919 15.8618 4.82531 15.8618 8.71802C15.8618 12.6107 12.6957 15.7768 8.80295 15.7768ZM13.8232 9.18861V10.1298H8.17612V5.4239H9.1173V9.18861H13.8232Z" fill="white"/>
</g>
<defs>
<clipPath id="clip0_751_659">
<rect width="16" height="16" fill="white" transform="translate(0.802948 0.718018)"/>
</clipPath>
</defs>
</svg>
