<svg width="18" height="18" viewBox="0 0 18 18" fill="none" xmlns="http://www.w3.org/2000/svg">
<g clip-path="url(#clip0_751_677)">
<path d="M9.35468 4.70602V1.71802H8.35468V4.70602C4.79068 4.81102 0.354675 5.98802 0.354675 7.19302V14.234C0.354675 15.061 1.02768 15.734 1.85468 15.734H3.64468L5.64068 11.803C6.20767 11.907 7.35367 12.077 8.81367 12.077C10.2927 12.077 11.5077 11.903 12.1017 11.8L14.0097 15.734H15.8547C16.6817 15.734 17.3547 15.061 17.3547 14.234V7.19302C17.3547 5.98802 12.9177 4.81002 9.35468 4.70602ZM16.3547 14.234C16.3547 14.509 16.1297 14.734 15.8547 14.734H14.6367L12.6607 10.664L12.2747 10.749C12.2597 10.752 10.7597 11.078 8.81268 11.078C6.87168 11.078 5.49768 10.755 5.48368 10.751L5.09968 10.658L3.03168 14.733H1.85468C1.57968 14.733 1.35468 14.508 1.35468 14.233V7.31802C1.85668 6.88102 4.73468 5.80002 8.35468 5.70702V5.71802H9.35468V5.70502C12.9737 5.79902 15.8527 6.88002 16.3547 7.31702V14.234ZM5.35468 7.73802H6.35268V8.73802H5.35468V9.75802H4.35468V8.73802H3.35468V7.73802H4.35468V6.71802H5.35468V7.73802ZM12.8547 9.73802C13.6817 9.73802 14.3547 9.06502 14.3547 8.23802C14.3547 7.41102 13.6817 6.73802 12.8547 6.73802C12.0277 6.73802 11.3547 7.41002 11.3547 8.23802C11.3547 9.06602 12.0277 9.73802 12.8547 9.73802ZM12.8547 7.73802C13.1297 7.73802 13.3547 7.96302 13.3547 8.23802C13.3547 8.51302 13.1297 8.73802 12.8547 8.73802C12.5797 8.73802 12.3547 8.51302 12.3547 8.23802C12.3547 7.96302 12.5797 7.73802 12.8547 7.73802Z" fill="white"/>
</g>
<defs>
<clipPath id="clip0_751_677">
<rect width="17" height="17" fill="white" transform="translate(0.354675 0.718018)"/>
</clipPath>
</defs>
</svg>
