<svg width="16" height="16" viewBox="0 0 16 16" fill="none" xmlns="http://www.w3.org/2000/svg">
<path d="M8.42637 0.9487L4.69272 3.66117V15.0871L8.44425 12.4574L12.2475 15.0786V3.65741L8.42637 0.9487ZM11.3073 13.2866L8.44142 11.3101L5.63484 13.2781V4.14023L8.43484 2.10635L11.3082 4.14399V13.2866H11.3073ZM6.82731 5.64799C6.82731 6.55623 7.56613 7.29505 8.47437 7.29505C9.3826 7.29505 10.1214 6.55623 10.1214 5.64799C10.1214 4.73976 9.3826 4.00094 8.47437 4.00094C7.56613 4.00094 6.82731 4.73976 6.82731 5.64799ZM8.47437 4.94211C8.86307 4.94211 9.18025 5.25929 9.18025 5.64799C9.18025 6.0367 8.86307 6.35388 8.47437 6.35388C8.08566 6.35388 7.76848 6.0367 7.76848 5.64799C7.76848 5.25929 8.08566 4.94211 8.47437 4.94211Z" fill="white"/>
</svg>
