<svg width="17" height="17" viewBox="0 0 17 17" fill="none" xmlns="http://www.w3.org/2000/svg">
<g clip-path="url(#clip0_751_695)">
<path d="M10.3152 9.73166L10.3057 9.72225C10.2935 9.7119 10.285 9.69967 10.2719 9.69025L10.269 9.69402L8.69728 8.48743V3.11614C9.77022 3.32131 10.5796 4.21166 10.5796 5.27708L11.0493 5.33355L11.5208 5.27708C11.5208 3.6959 10.2888 2.39519 8.69728 2.17496V0.718018H7.7561V2.17496C6.16457 2.39519 4.93257 3.6959 4.93257 5.27708C4.93257 6.16366 5.32881 7.00696 6.01587 7.60461L6.01116 7.60931L6.04881 7.63849L7.7561 8.95049V14.3199C6.68316 14.1147 5.87375 13.2244 5.87375 12.159H4.93257C4.93257 13.7401 6.16457 15.0408 7.7561 15.2611V16.719H8.69728V15.2611C10.2888 15.0408 11.5208 13.7401 11.5208 12.159C11.5208 11.2121 11.0794 10.334 10.3152 9.73166ZM6.6474 6.9119C6.1561 6.49214 5.87375 5.89825 5.87375 5.27708C5.87375 4.21166 6.68316 3.32131 7.7561 3.11614V7.76366L6.6474 6.9119ZM8.69728 14.3199V9.67425L9.73634 10.4733C10.27 10.894 10.5796 11.5048 10.5796 12.159C10.5796 13.2244 9.77022 14.1147 8.69728 14.3199Z" fill="white"/>
</g>
<defs>
<clipPath id="clip0_751_695">
<rect width="16" height="16" fill="white" transform="translate(0.226685 0.718018)"/>
</clipPath>
</defs>
</svg>
