<svg width="32" height="32" viewBox="0 0 32 32" fill="none" xmlns="http://www.w3.org/2000/svg">
<g clip-path="url(#clip0_532_14838)">
<path fill-rule="evenodd" clip-rule="evenodd" d="M6.12105 18.8492C6.42403 18.8492 6.68453 18.7201 6.86788 18.4791C7.05123 18.2381 7.10641 17.9525 7.0256 17.6607C6.93868 17.3461 6.85909 17.0296 6.78683 16.7118C6.1191 13.7672 6.1235 10.7281 7.16305 8.02427C7.97433 5.91392 9.40157 4.02524 11.6101 2.56357C11.663 2.52842 11.6814 2.4603 11.653 2.40342C11.6247 2.34653 11.5595 2.32016 11.4997 2.34116C9.52047 3.03306 7.9714 4.21201 6.78927 5.6854C5.15548 7.72153 4.24532 10.3072 3.88009 12.9264C3.63888 14.6559 3.63399 16.4027 3.81417 18.0133C3.8669 18.493 4.2734 18.848 4.74508 18.8475L6.12105 18.8492Z" fill="#9FB1CC"/>
<path fill-rule="evenodd" clip-rule="evenodd" d="M8.19507 23.0237C7.71265 23.0237 7.31909 23.417 7.31909 23.8994V23.9612C7.31909 24.4436 7.71265 24.8369 8.19507 24.8369H24.5859C25.0684 24.8369 25.4619 24.4436 25.4619 23.9612V23.8994C25.4619 23.417 25.0684 23.0237 24.5859 23.0237H8.19507Z" fill="#9FB1CC"/>
<path fill-rule="evenodd" clip-rule="evenodd" d="M27.384 26.7136H5.39893C4.88208 26.7136 4.46069 27.1353 4.46069 27.6521V30.999C4.46069 31.5173 4.88086 31.9375 5.39893 31.9375H27.384C27.9023 31.9375 28.3225 31.5173 28.3225 30.999V27.6521C28.3225 27.1353 27.9009 26.7136 27.384 26.7136Z" fill="#9FB1CC"/>
<path fill-rule="evenodd" clip-rule="evenodd" d="M8.90859 8.69208C8.01308 11.0212 8.0204 13.6887 8.61317 16.3019C8.89931 17.5634 9.32533 18.8171 9.85561 20.0187C9.87221 20.0561 9.88588 20.0942 9.89735 20.1323L10.0477 20.5361C10.1874 20.9101 10.5277 21.1464 10.9271 21.1464H21.9142C22.4311 21.1464 22.8527 20.7248 22.8527 20.208V19.4565C22.8527 19.1943 22.745 18.9575 22.5719 18.7871L18.4101 14.6252C18.1539 14.3693 18.1083 13.9731 18.3087 13.673C18.4691 13.4328 18.8649 13.2377 19.1557 13.2758C19.309 13.2961 19.4601 13.3708 19.5863 13.497L20.6703 14.5812C22.0775 15.9882 24.3947 15.9882 25.8017 14.5812C26.9772 13.4057 27.2567 11.7006 26.4528 10.2343C25.9345 9.28925 25.2465 8.0893 24.5167 6.92255C23.9828 6.06903 23.4171 5.22089 22.8639 4.48407L21.3798 0.625183C21.338 0.47406 21.2577 0.331238 21.1388 0.212341C20.7724 -0.154114 20.1784 -0.154114 19.8119 0.212341L18.3747 1.64935C18.2457 1.83881 18.0477 1.98139 17.8068 2.03558C16.6017 2.30878 15.5238 2.66327 14.5636 3.0871C11.5687 4.40888 9.78944 6.40082 8.90859 8.69208ZM19.839 6.68866H19.8707C20.3891 6.68866 20.8092 7.10883 20.8092 7.62714C20.8092 8.14545 20.3891 8.56562 19.8707 8.56562H19.839C19.3207 8.56562 18.9005 8.14545 18.9005 7.62714C18.9005 7.10883 19.3207 6.68866 19.839 6.68866Z" fill="#9FB1CC"/>
</g>
<defs>
<clipPath id="clip0_532_14838">
<rect width="32" height="32" fill="white"/>
</clipPath>
</defs>
</svg>
