<svg width="16" height="16" viewBox="0 0 16 16" fill="none" xmlns="http://www.w3.org/2000/svg">
<g clip-path="url(#clip0_1461_15684)">
<path d="M14.3558 4.74152C14.3661 4.88364 14.3661 5.02575 14.3661 5.16881C14.3661 9.50293 11.0664 14.4978 5.03624 14.4978C3.17835 14.4978 1.45224 13.9594 0 13.0258C0.264471 13.0559 0.518588 13.0653 0.792471 13.0653C2.32565 13.0653 3.73553 12.5476 4.86306 11.6648C3.42118 11.6347 2.21365 10.6898 1.79765 9.38999C2 9.42011 2.20329 9.44081 2.41506 9.44081C2.71059 9.44081 3.00518 9.40034 3.27906 9.32975C1.77694 9.02481 0.649412 7.70528 0.649412 6.11187C0.649412 6.10152 0.649412 6.08081 0.649412 6.0714C1.08612 6.31422 1.59341 6.46669 2.13176 6.4874C1.24894 5.89822 0.670118 4.89305 0.670118 3.75705C0.670118 3.14811 0.832941 2.58905 1.11718 2.10152C2.73129 4.09211 5.15765 5.39187 7.87859 5.53305C7.82682 5.28928 7.79671 5.03517 7.79671 4.78105C7.79671 2.97493 9.25929 1.50293 11.0758 1.50293C12.0198 1.50293 12.8725 1.89822 13.472 2.53822C14.2127 2.39611 14.9224 2.12222 15.5529 1.74669C15.3092 2.50811 14.7915 3.14811 14.1111 3.55281C14.7718 3.48222 15.4108 3.29964 16 3.04552C15.5529 3.69493 14.9948 4.27469 14.3558 4.74152Z" fill="white"/>
</g>
<defs>
<clipPath id="clip0_1461_15684">
<rect width="16" height="16" fill="white"/>
</clipPath>
</defs>
</svg>
