<svg width="16" height="16" viewBox="0 0 16 16" fill="none" xmlns="http://www.w3.org/2000/svg">
<path d="M14.1415 5.85885C14.1415 9.4532 12.1434 12.129 9.20409 12.129C8.2168 12.129 7.2888 11.5944 6.97821 10.9873C6.44362 13.0937 6.33632 13.4974 6.33632 13.4974C6.14527 14.1996 5.75374 14.9026 5.40927 15.4494C4.42762 16.1431 4.33632 15.0692 4.33632 15.0692C4.31374 14.4254 4.32503 13.6527 4.49256 12.9638C4.49256 12.9638 4.67044 12.225 5.66903 7.98967C5.37256 7.40614 5.37256 6.53744 5.37256 6.53744C5.37256 5.1812 6.15844 4.16944 7.13444 4.16944C7.96738 4.16944 8.37115 4.80002 8.37115 5.55014C8.37115 6.38308 7.83468 7.63297 7.56268 8.78685C7.3368 9.76285 8.05021 10.5478 9.00174 10.5478C10.7401 10.5478 11.9043 8.32379 11.9043 5.6932C11.9043 3.68191 10.549 2.18355 8.09727 2.18355C5.3255 2.18355 3.60032 4.25414 3.60032 6.56191C3.60032 7.36002 3.8375 7.91908 4.20644 8.35955C4.37397 8.56191 4.3975 8.63249 4.33727 8.87061C4.29115 9.0372 4.19609 9.44191 4.14809 9.59626C4.0888 9.83438 3.89774 9.9172 3.69632 9.83438C2.42291 9.3092 1.82715 7.90591 1.82715 6.33508C1.82715 3.7412 4.01538 0.624023 8.34762 0.624023C11.846 0.624023 14.1415 3.15767 14.1415 5.85885Z" fill="white"/>
</svg>
