<svg width="16" height="16" viewBox="0 0 16 16" fill="none" xmlns="http://www.w3.org/2000/svg">
<g clip-path="url(#clip0_1461_15693)">
<path d="M12.3078 10.461C12.3078 11.1632 11.9416 12.3076 11.0767 12.3076C10.2108 12.3076 9.84471 11.1632 9.84471 10.461C9.84471 9.75986 10.2108 8.61445 11.0767 8.61445C11.9416 8.61445 12.3078 9.75986 12.3078 10.461ZM4.92329 8.61445C4.05835 8.61445 3.69224 9.75986 3.69224 10.461C3.69224 11.1632 4.05835 12.3076 4.92329 12.3076C5.78824 12.3076 6.15435 11.1632 6.15435 10.461C6.15435 9.75986 5.78824 8.61445 4.92329 8.61445ZM16 8.7688C16 9.83704 15.8946 10.9712 15.4136 11.9519C14.144 14.5194 10.6541 14.7688 8.15435 14.7688C5.616 14.7688 1.91435 14.5486 0.596706 11.9519C0.105412 10.9806 0 9.83704 0 8.7688C0 7.36457 0.384941 6.03845 1.30824 4.96174C1.13506 4.4328 1.04847 3.87469 1.04847 3.32598C1.04847 2.60504 1.21129 1.88504 1.53882 1.22998C3.05788 1.22998 4.02918 1.89351 5.18306 2.79704C6.15435 2.56645 7.15388 2.46104 8.15435 2.46104C9.05788 2.46104 9.97176 2.55798 10.8471 2.7688C11.9915 1.87469 12.9619 1.22998 14.4621 1.22998C14.7896 1.8841 14.9525 2.60504 14.9525 3.32598C14.9525 3.87469 14.8659 4.42245 14.6927 4.94198C15.616 6.0281 16 7.36457 16 8.7688ZM13.8456 10.461C13.8456 8.98998 12.9525 7.6921 11.3845 7.6921C10.7501 7.6921 10.1449 7.80786 9.50965 7.89445C9.00988 7.97163 8.51012 7.99986 8 7.99986C7.48988 7.99986 6.99012 7.97163 6.49035 7.89445C5.86541 7.80786 5.24988 7.6921 4.61553 7.6921C3.04847 7.6921 2.15435 8.98998 2.15435 10.461C2.15435 13.4032 4.84612 13.8549 7.19247 13.8549H8.80847C11.1548 13.8559 13.8456 13.4032 13.8456 10.461Z" fill="white"/>
</g>
<defs>
<clipPath id="clip0_1461_15693">
<rect width="16" height="16" fill="white"/>
</clipPath>
</defs>
</svg>
