<svg width="32" height="32" viewBox="0 0 32 32" fill="none" xmlns="http://www.w3.org/2000/svg">
<g clip-path="url(#clip0_532_14867)">
<path fill-rule="evenodd" clip-rule="evenodd" d="M23.6262 12.3342C24.7 14.1077 25.3179 16.1877 25.3179 18.4121C25.3179 21.6575 24.0024 24.5957 21.8757 26.7224C19.749 28.8491 16.8108 30.1645 13.5654 30.1645C10.3201 30.1645 7.38184 28.8491 5.25513 26.7224C3.12842 24.5957 1.81299 21.6575 1.81299 18.4121C1.81299 15.1667 3.12842 12.2285 5.25513 10.1018C7.38184 7.9751 10.3201 6.65967 13.5654 6.65967C15.7983 6.65967 17.8857 7.28223 19.6633 8.36328L21.0273 7.00684C18.8835 5.60156 16.3198 4.78418 13.5654 4.78418C9.80225 4.78418 6.39527 6.30957 3.9292 8.77588C1.46289 11.2419 -0.0625 14.6489 -0.0625 18.4121C-0.0625 22.1753 1.46289 25.5823 3.9292 28.0483C6.39527 30.5146 9.80225 32.04 13.5654 32.04C17.3286 32.04 20.7356 30.5146 23.2017 28.0483C25.668 25.5823 27.1934 22.1753 27.1934 18.4121C27.1934 15.6697 26.3831 13.1167 24.9893 10.979L23.6262 12.3342Z" fill="#9FB1CC"/>
<path fill-rule="evenodd" clip-rule="evenodd" d="M18.3081 9.71021C16.8992 8.94043 15.283 8.50293 13.5645 8.50293C10.8281 8.50293 8.35108 9.61206 6.55786 11.4053C4.76465 13.1985 3.65527 15.6758 3.65527 18.4119C3.65527 21.1482 4.76465 23.6252 6.55786 25.4185C8.35108 27.2117 10.8281 28.3211 13.5645 28.3211C16.3005 28.3211 18.7778 27.2117 20.571 25.4185C22.3643 23.6252 23.4734 21.1482 23.4734 18.4119C23.4734 16.698 23.0383 15.0857 22.2725 13.6797L20.8728 15.0715C21.3384 16.0889 21.5981 17.22 21.5981 18.4119C21.5981 20.6304 20.699 22.6389 19.2451 24.0925C17.7915 25.5464 15.783 26.4456 13.5645 26.4456C11.3459 26.4456 9.3374 25.5464 7.88379 24.0925C6.42993 22.6389 5.53076 20.6304 5.53076 18.4119C5.53076 16.1934 6.42993 14.1848 7.88379 12.7312C9.3374 11.2773 11.3459 10.3782 13.5645 10.3782C14.7568 10.3782 15.8887 10.6382 16.9063 11.1042L18.3081 9.71021Z" fill="#9FB1CC"/>
<path fill-rule="evenodd" clip-rule="evenodd" d="M13.5657 14.0989C13.6721 14.0984 13.7788 14.1021 13.885 14.1099L15.4793 12.5244C14.8765 12.3286 14.2334 12.2227 13.5657 12.2227C11.8567 12.2227 10.3096 12.9155 9.18945 14.0356C8.06958 15.1555 7.37671 16.7026 7.37671 18.4116C7.37671 20.1204 8.06958 21.6677 9.1897 22.7876C10.3096 23.9077 11.8569 24.6003 13.5657 24.6003C15.2747 24.6003 16.8218 23.9077 17.9419 22.7876C19.0618 21.6677 19.7544 20.1206 19.7544 18.4116C19.7544 17.74 19.6475 17.0933 19.4495 16.4878L17.8652 18.0635C17.8743 18.1785 17.8792 18.2944 17.8792 18.4116C17.8792 19.6028 17.3962 20.6812 16.6157 21.4617C15.8352 22.2422 14.7568 22.7251 13.5657 22.7251C12.3743 22.7251 11.2959 22.2422 10.5154 21.4617C9.73511 20.6812 9.2522 19.6028 9.2522 18.4116C9.2522 17.2205 9.73511 16.1421 10.5156 15.3616C11.3118 14.5652 12.4392 14.1038 13.5657 14.0989Z" fill="#9FB1CC"/>
<path fill-rule="evenodd" clip-rule="evenodd" d="M31.663 3.89652C31.5017 3.73514 31.2961 3.64481 31.0851 3.62577L28.873 3.26371L28.3769 0.839878C28.3456 0.656528 28.2595 0.480503 28.1184 0.338657C27.7541 -0.0275541 27.1621 -0.0290188 26.7961 0.334995L24.0295 3.08841C23.8342 3.28275 23.7426 3.54203 23.7551 3.79715L23.7687 6.91776L12.8234 17.803C12.4575 18.1673 12.4558 18.7591 12.8198 19.1253C13.184 19.4915 13.7761 19.4932 14.142 19.1289L25.0908 8.24027L28.1679 8.24369C28.4345 8.26713 28.7092 8.17679 28.9133 7.97294L31.663 5.22245C32.0292 4.85624 32.0292 4.26273 31.663 3.89652Z" fill="#9FB1CC"/>
</g>
<defs>
<clipPath id="clip0_532_14867">
<rect width="32" height="32" fill="white"/>
</clipPath>
</defs>
</svg>
